<svg xmlns="http://www.w3.org/2000/svg" xmlns:xlink="http://www.w3.org/1999/xlink" width="52" height="52" viewBox="0 0 52 52">
    <defs>
        <circle id="a" cx="25" cy="25" r="25"/>
    </defs>
    <g fill="none" fill-rule="evenodd">
        <g stroke-linecap="square" transform="translate(1 1)">
            <use fill="#FA333F" xlink:href="#a"/>
            <circle cx="25" cy="25" r="25.5" stroke="#FA333F"/>
        </g>
        <path fill="#FFF" d="M32.133 25.48c-.795 0-1.44.639-1.44 1.426 0 .787.645 1.425 1.44 1.425.795 0 1.44-.638 1.44-1.425s-.645-1.425-1.44-1.425zm-12.74 0c-.796 0-1.44.639-1.44 1.426 0 .787.644 1.425 1.44 1.425.794 0 1.44-.638 1.44-1.425s-.646-1.425-1.44-1.425zm-.001-1.669c1.727 0 3.126 1.386 3.126 3.095 0 1.709-1.4 3.094-3.126 3.094s-3.125-1.385-3.125-3.094c0-1.71 1.399-3.095 3.125-3.095zm24.14.247H42.28c-.117 0-.216.06-.249.175l-.917 3.1-.833-3.094a.243.243 0 0 0-.242-.181h-1.08a.243.243 0 0 0-.246.193l-.894 3-.839-3.016a.243.243 0 0 0-.241-.177h-1.267a.246.246 0 0 0-.24.317l1.623 5.241a.243.243 0 0 0 .242.181h1.236a.25.25 0 0 0 .245-.192l.93-3.056.915 3.047c.02.119.125.205.247.201h1.235c.113 0 .21-.066.241-.175l1.622-5.242c.058-.162-.064-.322-.236-.322zm-27.5 3.96c0-2.028-2.915-1.52-2.915-2.42 0-.259.262-.383.491-.383.247 0 .445.075.516.276a.243.243 0 0 0 .231.158h1.217c.157 0 .27-.14.237-.292-.229-1.022-1.117-1.517-2.18-1.517-1.117 0-2.246.692-2.246 1.892 0 1.771 2.915 1.472 2.915 2.42 0 .3-.345.445-.606.445-.287 0-.516-.122-.615-.365a.245.245 0 0 0-.233-.163H11.6a.242.242 0 0 0-.238.304c.255 1.06 1.199 1.599 2.309 1.599 1.18 0 2.36-.662 2.36-1.955zm8.92-3.96c0-.555.079-.724.507-.758a.242.242 0 0 0 .224-.25v-.808a.24.24 0 0 0-.25-.242c-1.212 0-2.215.362-2.215 1.758v.3h-.408a.24.24 0 0 0-.24.237v.829c0 .13.109.237.24.237h.408v4.2c0 .13.108.237.24.237h1.255a.24.24 0 0 0 .239-.238v-4.199h.492a.24.24 0 0 0 .24-.237v-.829a.24.24 0 0 0-.24-.237h-.492zm3.142 3.688c0 .55.08.717.507.752.135.01.224.118.224.25v.808c0 .137-.113.24-.25.241-1.212 0-2.215-.362-2.215-1.758v-5.661a.24.24 0 0 1 .24-.237h1.254a.24.24 0 0 1 .24.237v5.368zM9.24 24.058h1.254a.24.24 0 0 1 .24.237v5.265a.24.24 0 0 1-.24.238H9.24A.24.24 0 0 1 9 29.56v-5.265a.24.24 0 0 1 .24-.237zm22.892-.247c1.727 0 3.126 1.386 3.126 3.095 0 1.709-1.399 3.094-3.126 3.094-1.726 0-3.125-1.385-3.125-3.094 0-1.71 1.4-3.095 3.125-3.095z"/>
    </g>
</svg>
