<svg xmlns="http://www.w3.org/2000/svg" xmlns:xlink="http://www.w3.org/1999/xlink" width="100" height="100" viewBox="0 0 100 100">
    <defs>
        <path id="a" d="M94.268 39.687h-69.01v-6.52H11.441a5.707 5.707 0 0 0-4.044 1.682 5.749 5.749 0 0 0-1.673 4.06v.782a5.707 5.707 0 0 0-4.045 1.675A5.749 5.749 0 0 0 0 45.422v48.76c0 3.169 2.56 5.738 5.717 5.738h88.551a5.703 5.703 0 0 0 4.053-1.674A5.745 5.745 0 0 0 100 94.182v-48.76a5.749 5.749 0 0 0-1.681-4.06 5.707 5.707 0 0 0-4.05-1.675z"/>
    </defs>
    <g fill="none" fill-rule="nonzero">
        <g fill-rule="evenodd">
            <use fill="#2E94FF" xlink:href="#a"/>
            <use fill="#000" fill-opacity=".2" xlink:href="#a"/>
        </g>
        <path fill="#FFF" d="M68.033 82.59H17.308V11.701c0-.603.487-1.091 1.087-1.091h49.638v71.978z"/>
        <path fill="#D9DDDE" d="M52.242 25.6H25.224v-1.458h27.018zM52.242 29.797H25.224v-1.458h27.018zM30.37 33.997h-5.146v-1.458h5.145z"/>
        <path fill="#2E94FF" d="M42.753 33.997h-9.656v-1.458h9.656z"/>
        <path fill="#D9DDDE" d="M52.242 38.197H25.224v-1.458h27.018z"/>
        <path fill="#2E94FF" d="M35.514 42.392h-10.29v-1.458h10.29z"/>
        <path fill="#242424" d="M40.12 10.611h2.558v45.116H40.12z" opacity=".2"/>
        <path fill="#FFF" d="M93.388 71.978H42.663V1.091C42.663.488 43.15 0 43.75 0h37.681l5.971 5.993L93.388 12v59.978z"/>
        <path fill="#2E94FF" d="M5.725 99.93a5.714 5.714 0 0 0 4.049-1.683 5.756 5.756 0 0 0 1.675-4.065v-42.91a5.749 5.749 0 0 1 1.672-4.061 5.707 5.707 0 0 1 4.046-1.684h77.101c1.52-.004 2.98.6 4.055 1.678A5.749 5.749 0 0 1 100 51.273v42.909c0 3.169-2.56 5.738-5.717 5.738l-88.558.01z"/>
        <ellipse cx="73.562" cy="63.789" fill="#000" rx="2.322" ry="2.331"/>
        <ellipse cx="37.873" cy="63.789" fill="#000" rx="2.322" ry="2.331"/>
        <ellipse cx="74.246" cy="63.102" fill="#FFF" rx="1" ry="1"/>
        <ellipse cx="38.558" cy="63.102" fill="#FFF" rx="1" ry="1"/>
        <path fill="#000" d="M55.71 65.993c-2.496-.002-4.518-2.034-4.518-4.538a.726.726 0 0 1 1.45 0 3.083 3.083 0 0 0 1.502 2.755 3.06 3.06 0 0 0 3.13 0 3.083 3.083 0 0 0 1.501-2.755.726.726 0 0 1 1.45 0c0 2.503-2.02 4.534-4.515 4.538z"/>
        <path fill="#D9DDDE" d="M93.388 12h-10.87c-.6 0-1.087-.488-1.087-1.09V0"/>
        <path fill="#2E94FF" d="M85.583 25.262H68.898v-1.465h16.685zM85.583 29.48H68.898v-1.465h16.685zM85.583 33.702H68.898v-1.465h16.685zM77.24 37.924h-8.345v-1.465h8.344z"/>
        <path fill="#D9DDDE" d="M85.583 16.818H50.485v-1.465h35.098zM77.24 42.164h-8.345v-1.465h8.344zM85.583 21.04H50.485v-1.465h35.098zM66.152 25.262h-15.67v-1.465h15.67zM66.152 42.163h-15.67V28.014h15.67z"/>
    </g>
</svg>
