<?xml version="1.0" encoding="UTF-8"?>
<svg width="111px" height="11px" viewBox="0 0 111 11" version="1.1" xmlns="http://www.w3.org/2000/svg" xmlns:xlink="http://www.w3.org/1999/xlink">
    <!-- Generator: Sketch 47.1 (45422) - http://www.bohemiancoding.com/sketch -->
    <title>Made w/ ❤️</title>
    <desc>Created with Sketch.</desc>
    <defs></defs>
    <g id="Design" stroke="none" stroke-width="1" fill="none" fill-rule="evenodd">
        <g id="Isoflow-Dashboard-Team-Selection-03a" transform="translate(-1209.000000, -1701.000000)">
            <g id="Made-with-❤️-by-Isoflow---Credit" transform="translate(1209.000000, 1700.000000)">
                <g id="Credit" transform="translate(0.000000, 1.000000)">
                    <path d="M98.9422548,3.91564271 C98.1194341,3.91564271 97.4521827,4.6334794 97.4521827,5.51896452 C97.4521827,6.40444965 98.1194341,7.1225417 98.9422548,7.1225417 C99.7653128,7.1225417 100.432564,6.40444965 100.432564,5.51896452 C100.432564,4.6334794 99.7653128,3.91564271 98.9422548,3.91564271 L98.9422548,3.91564271 Z M85.7560014,3.91564271 C84.9331807,3.91564271 84.2659293,4.6334794 84.2659293,5.51896452 C84.2659293,6.40444965 84.9331807,7.1225417 85.7560014,7.1225417 C86.5789407,7.1225417 87.2463107,6.40444965 87.2463107,5.51896452 C87.2463107,4.6334794 86.5789407,3.91564271 85.7560014,3.91564271 L85.7560014,3.91564271 Z M85.755764,2.03792905 C87.5428537,2.03792905 88.9911558,3.59643394 88.9911558,5.51870916 C88.9911558,7.44136742 87.5428537,9 85.755764,9 C83.969149,9 82.520847,7.44136742 82.520847,5.51870916 C82.520847,3.59643394 83.969149,2.03792905 85.755764,2.03792905 L85.755764,2.03792905 Z M110.740369,2.31525763 L109.445263,2.31525763 C109.323988,2.31525763 109.221343,2.38229147 109.187405,2.51201791 L108.237969,5.99892683 L107.375989,2.51891282 C107.342763,2.39263383 107.247,2.31525763 107.124895,2.31525763 L106.006836,2.31525763 C105.882594,2.31525763 105.777695,2.40029484 105.752894,2.53270264 L104.828022,5.90750544 L103.959634,2.5144439 C103.928069,2.39046321 103.826967,2.31525763 103.709607,2.31525763 L102.398363,2.31525763 C102.225824,2.31525763 102.099091,2.49337612 102.15071,2.67226071 L103.829458,8.56804669 C103.858531,8.69062286 103.962956,8.77566008 104.080553,8.77208494 L105.359283,8.77208494 C105.48578,8.77208494 105.580593,8.68436637 105.613226,8.55515066 L106.576664,5.11765526 L107.522658,8.54570208 C107.543425,8.67913134 107.652359,8.77578776 107.778143,8.77208494 L109.056755,8.77208494 C109.173402,8.77208494 109.273555,8.69790082 109.306069,8.57519697 L110.984937,2.67762342 C111.044863,2.49554674 110.918366,2.31525763 110.740369,2.31525763 L110.740369,2.31525763 Z M82.2780591,6.76962448 C82.2780591,4.48919703 79.2613663,5.05943158 79.2613663,4.04728441 C79.2613663,3.75642138 79.5319217,3.61686331 79.7697257,3.61686331 C80.024736,3.61686331 80.2295512,3.70164515 80.3030046,3.92687886 C80.3387227,4.03643131 80.435909,4.10538041 80.5427072,4.10538041 L81.8019765,4.10538041 C81.9641911,4.10538041 82.0820251,3.94845738 82.0469003,3.77685074 C81.810283,2.62680538 80.8915813,2.06946687 79.7913226,2.06946687 C78.634461,2.06946687 77.4666821,2.84897469 77.4666821,4.19846168 C77.4666821,6.19134588 80.4832562,5.8543891 80.4832562,6.92080176 C80.4832562,7.25826927 80.1265503,7.42106574 79.8562322,7.42106574 C79.5596892,7.42106574 79.3225973,7.28406134 79.2201897,7.01132936 C79.1783011,6.89935093 79.0927438,6.82784816 78.9781138,6.82784816 L77.6909583,6.82784816 C77.5226918,6.82784816 77.4058071,6.99115537 77.4449665,7.16914618 C77.708402,8.36247624 78.6851308,8.96846217 79.8343979,8.96846217 C81.0566438,8.96846217 82.2780591,8.22355659 82.2780591,6.76962448 L82.2780591,6.76962448 Z M91.5102876,2.31538531 C91.5102876,1.69050222 91.5916916,1.50101989 92.0351414,1.46220411 C92.174691,1.44994649 92.2672495,1.32903021 92.2672495,1.18091734 L92.2667748,0.272193814 C92.2667748,0.117313719 92.1522634,-0.00398561318 92.0078485,0.000100259071 C90.7535632,0.000100259071 89.7154848,0.407155282 89.7154848,1.9779178 L89.7154848,2.31538531 L89.2935133,2.31538531 C89.1572863,2.31538531 89.0452668,2.43553549 89.0452668,2.58237152 L89.0452668,3.51433345 C89.0452668,3.66116948 89.1574049,3.78144735 89.2935133,3.78144735 L89.7154848,3.78144735 L89.7154848,8.50535409 C89.7154848,8.65219012 89.8273856,8.77221262 89.9637312,8.77221262 L91.2625159,8.77221262 C91.3986242,8.77221262 91.5102876,8.65180707 91.5102876,8.50535409 L91.5102876,3.78144735 L92.0192403,3.78144735 C92.1551114,3.78144735 92.2672495,3.6602757 92.2672495,3.51433345 L92.2672495,2.58237152 C92.2672495,2.43630159 92.1554674,2.31538531 92.0192403,2.31538531 L91.5102876,2.31538531 Z M94.7620551,6.46407785 C94.7620551,7.08295981 94.845595,7.27129299 95.2867902,7.30985341 C95.4263398,7.32185566 95.5188982,7.4430273 95.5188982,7.59114017 L95.5184236,8.50088517 C95.5179489,8.65461611 95.4020136,8.77131884 95.2594973,8.77182957 C94.0052119,8.77182957 92.9672522,8.36490223 92.9672522,6.79413972 L92.9672522,0.425158657 C92.9672522,0.278322623 93.0790343,0.158172442 93.21538,0.158172442 L94.5141646,0.158172442 C94.6501543,0.158172442 94.7620551,0.278705673 94.7620551,0.425158657 C94.7620551,2.43808916 94.7612244,4.45114735 94.7620551,6.46407785 L94.7620551,6.46407785 Z M75.2482465,2.31538531 L76.5466751,2.31538531 C76.6832581,2.31538531 76.7948029,2.43553549 76.7948029,2.58237152 L76.7948029,8.50535409 C76.7948029,8.65219012 76.6832581,8.77221262 76.5466751,8.77221262 L75.2482465,8.77221262 C75.1115448,8.77221262 75,8.65219012 75,8.50535409 L75,2.58237152 C75,2.43553549 75.1115448,2.31538531 75.2482465,2.31538531 L75.2482465,2.31538531 Z M98.9421361,2.03792905 C100.729107,2.03792905 102.177409,3.59643394 102.177409,5.51870916 C102.177409,7.44136742 100.729107,9 98.9421361,9 C97.1555211,9 95.7071004,7.44136742 95.7071004,5.51870916 C95.7071004,3.59643394 97.1555211,2.03792905 98.9421361,2.03792905 L98.9421361,2.03792905 Z" id="Fill-1" fill="#FA333F"></path>
                    <g id="ic_favorite_black_24px" transform="translate(49.000000, 0.000000)">
                        <polygon id="Shape" points="0 0 10 0 10 10 0 10"></polygon>
                        <path d="M5,8.89583333 L4.39583333,8.34583333 C2.25,6.4 0.833333333,5.11666667 0.833333333,3.54166667 C0.833333333,2.25833333 1.84166667,1.25 3.125,1.25 C3.85,1.25 4.54583333,1.5875 5,2.12083333 C5.45416667,1.5875 6.15,1.25 6.875,1.25 C8.15833333,1.25 9.16666667,2.25833333 9.16666667,3.54166667 C9.16666667,5.11666667 7.75,6.4 5.60416667,8.35 L5,8.89583333 Z" id="Shape" fill="#BDC3C7" fill-rule="nonzero"></path>
                    </g>
                    <path d="M0,7.8590604 L0,2.87919463 L0.731099656,2.87919463 L0.731099656,3.35838926 L0.750859107,3.35838926 C0.876002917,3.17673287 1.06042261,3.02796479 1.30412371,2.91208054 C1.54782482,2.79619629 1.80798831,2.73825503 2.08462199,2.73825503 C2.41394781,2.73825503 2.69551716,2.80872413 2.92933849,2.94966443 C3.16315982,3.09060473 3.3426397,3.2644285 3.46778351,3.47114094 L3.48754296,3.47114094 C3.61268677,3.27069251 3.80533948,3.09843472 4.06550687,2.95436242 C4.32567427,2.81029011 4.62370966,2.73825503 4.95962199,2.73825503 C5.51288936,2.73825503 5.95253273,2.89328704 6.27856529,3.2033557 C6.60459785,3.51342437 6.76761168,3.93467295 6.76761168,4.46711409 L6.76761168,7.8590604 L5.9871134,7.8590604 L5.9871134,4.70201342 C5.9871134,3.86263562 5.63144686,3.44295302 4.92010309,3.44295302 C4.5578447,3.44295302 4.27627535,3.54787367 4.0753866,3.75771812 C3.87449785,3.96756257 3.77405498,4.26040081 3.77405498,4.63624161 L3.77405498,7.8590604 L2.9935567,7.8590604 L2.9935567,4.70201342 C2.9935567,3.86263562 2.63789015,3.44295302 1.92654639,3.44295302 C1.54452845,3.44295302 1.26131249,3.55413759 1.07689003,3.77651007 C0.892467577,3.99888254 0.800257732,4.28545686 0.800257732,4.63624161 L0.800257732,7.8590604 L0,7.8590604 Z M11.4407216,7.8590604 L11.4407216,7.31409396 L11.4209622,7.31409396 C11.3221645,7.47695831 11.1344516,7.63199032 10.8578179,7.77919463 C10.5811842,7.92639895 10.2353973,8 9.82044674,8 C9.2408333,8 8.80118993,7.86532573 8.50150344,7.59597315 C8.20181694,7.32662058 8.05197595,6.98836893 8.05197595,6.58120805 C8.05197595,6.16778317 8.1853509,5.84362534 8.45210481,5.60872483 C8.71885872,5.37382433 9.17167493,5.17807685 9.81056701,5.02147651 C10.0476816,4.96510039 10.2238683,4.92125295 10.3391323,4.88993289 C10.4543963,4.85861282 10.5877713,4.81633136 10.7392612,4.76308725 C10.890751,4.70984313 10.9994269,4.6581658 11.0652921,4.60805369 C11.1311573,4.55794158 11.1887884,4.49530239 11.2381873,4.42013423 C11.2875862,4.34496607 11.3122852,4.26040315 11.3122852,4.16644295 C11.3122852,3.9534665 11.221722,3.77651077 11.0405928,3.63557047 C10.8594636,3.49463017 10.5844807,3.42416107 10.2156357,3.42416107 C9.51746501,3.42416107 9.09264108,3.75301685 8.9411512,4.41073826 L8.21005155,4.21342282 C8.29567626,3.77494188 8.50973483,3.41946445 8.85223368,3.14697987 C9.19473253,2.87449528 9.63931571,2.73825503 10.1859966,2.73825503 C10.7919561,2.73825503 11.2711179,2.8807592 11.6234966,3.16577181 C11.9758752,3.45078442 12.1520619,3.89708868 12.1520619,4.50469799 L12.1520619,7.8590604 L11.4407216,7.8590604 Z M9.99828179,5.61342282 C9.55039868,5.73243907 9.24577687,5.86084942 9.08440722,5.99865772 C8.92303757,6.13646601 8.84235395,6.31498772 8.84235395,6.53422819 C8.84235395,7.0541413 9.18814087,7.31409396 9.87972509,7.31409396 C10.3539543,7.31409396 10.7195004,7.21230527 10.9763746,7.00872483 C11.2332487,6.8051444 11.3616838,6.5561536 11.3616838,6.26174497 L11.3616838,5.02147651 L11.3419244,5.02147651 C11.2497132,5.2031329 10.8018368,5.40044636 9.99828179,5.61342282 Z M17.1314433,6.20536913 L17.1314433,4.66442953 C17.1314433,4.35122886 17.0095946,4.0677865 16.7658935,3.81409396 C16.5221924,3.56040142 16.1961647,3.43355705 15.7878007,3.43355705 C15.2674659,3.43355705 14.8722808,3.60268287 14.6022337,3.9409396 C14.3321865,4.27919632 14.1971649,4.7552542 14.1971649,5.36912752 C14.1971649,5.98300083 14.3321865,6.45905871 14.6022337,6.79731544 C14.8722808,7.13557216 15.2674659,7.30469799 15.7878007,7.30469799 C16.1698186,7.30469799 16.4892599,7.1950794 16.746134,6.97583893 C17.0030082,6.75659846 17.1314433,6.49977776 17.1314433,6.20536913 Z M17.2104811,7.8590604 L17.2104811,7.37986577 L17.1907216,7.37986577 C17.0524048,7.53646611 16.8498725,7.67897028 16.5831186,7.80738255 C16.3163646,7.93579483 16.0084496,8 15.6593643,8 C14.96778,8 14.4161676,7.76197106 14.0045103,7.28590604 C13.592853,6.80984102 13.3870275,6.17092123 13.3870275,5.36912752 C13.3870275,4.57359781 13.6027327,3.93624401 14.0341495,3.45704698 C14.4655663,2.97784995 15.0072991,2.73825503 15.6593643,2.73825503 C16.2587372,2.73825503 16.7428389,2.94496438 17.1116838,3.35838926 L17.1314433,3.35838926 L17.1314433,1 L17.9415808,1 L17.9415808,7.8590604 L17.2104811,7.8590604 Z M23.2469931,6.32751678 L23.899055,6.73154362 C23.7014595,7.0948564 23.4198901,7.39709052 23.0543385,7.63825503 C22.6887868,7.87941955 22.2392638,8 21.705756,8 C20.9944123,8 20.4115143,7.76040508 19.9570447,7.28120805 C19.502575,6.80201103 19.2753436,6.16465722 19.2753436,5.36912752 C19.2753436,4.57359781 19.4976352,3.93624401 19.9422251,3.45704698 C20.3868149,2.97784995 20.9614799,2.73825503 21.6662371,2.73825503 C22.3644078,2.73825503 22.9308398,2.97315201 23.3655498,3.44295302 C23.8002599,3.91275403 24.0176117,4.55480577 24.0176117,5.36912752 L24.0176117,5.59463087 L20.0854811,5.59463087 C20.0920676,6.07069589 20.232029,6.4747187 20.5053694,6.80671141 C20.7787098,7.13870412 21.1722483,7.30469799 21.6859966,7.30469799 C21.8835921,7.30469799 22.0680117,7.27807633 22.2392612,7.22483221 C22.4105106,7.1715881 22.5422389,7.11834479 22.6344502,7.06510067 C22.7266614,7.01185656 22.8238111,6.92416168 22.9259021,6.80201342 C23.0279931,6.67986516 23.090564,6.60000019 23.1136168,6.56241611 C23.1366696,6.52483203 23.181128,6.44653303 23.2469931,6.32751678 Z M20.1052405,4.98389262 L23.217354,4.98389262 C23.2041809,4.56420372 23.0724526,4.20089639 22.8221649,3.89395973 C22.5718773,3.58702307 22.1865719,3.43355705 21.6662371,3.43355705 C21.1590754,3.43355705 20.7737699,3.59798493 20.5103093,3.92684564 C20.2468486,4.25570634 20.1118271,4.60805181 20.1052405,4.98389262 Z M28.5820447,7.8590604 L27.4261168,2.87919463 L28.2263746,2.87919463 L29.0661512,6.62818792 L29.0859107,6.62818792 L30.4690722,2.87919463 L31.2001718,2.87919463 L32.5635739,6.62818792 L32.5833333,6.62818792 L33.5219072,2.87919463 L34.3122852,2.87919463 L33.0575601,7.8590604 L32.3165808,7.8590604 L30.834622,3.79060403 L30.8148625,3.79060403 L29.3329038,7.8590604 L28.5820447,7.8590604 Z M35.6559278,7.8590604 L35.6559278,2.87919463 L36.4660653,2.87919463 L36.4660653,7.8590604 L35.6559278,7.8590604 Z M35.5966495,1.8738255 L35.5966495,1 L36.5253436,1 L36.5253436,1.8738255 L35.5966495,1.8738255 Z M38.3926117,6.41208054 L38.3926117,3.56510067 L37.661512,3.56510067 L37.661512,2.87919463 L38.4123711,2.87919463 L38.4123711,1.65771812 L39.1829897,1.65771812 L39.1829897,2.87919463 L40.4772337,2.87919463 L40.4772337,3.56510067 L39.1928694,3.56510067 L39.1928694,6.31812081 C39.1928694,6.61252944 39.2356811,6.81923878 39.3213058,6.93825503 C39.4069306,7.05727129 39.5781774,7.11677852 39.8350515,7.11677852 L40.2302405,7.11677852 L40.2302405,7.8590604 L39.7955326,7.8590604 C39.3015439,7.8590604 38.9442308,7.73847995 38.7235825,7.49731544 C38.5029342,7.25615092 38.3926117,6.89440957 38.3926117,6.41208054 Z M41.7615979,7.8590604 L41.7615979,1 L42.5717354,1 L42.5717354,3.37718121 L42.5914948,3.37718121 C42.7363982,3.18926081 42.9488102,3.03579478 43.2287371,2.91677852 C43.5086641,2.79776227 43.8066995,2.73825503 44.1228522,2.73825503 C44.6827061,2.73825503 45.1355223,2.89955096 45.4813144,3.22214765 C45.8271065,3.54474434 46,4.0067084 46,4.60805369 L46,7.8590604 L45.1898625,7.8590604 L45.1898625,4.8147651 C45.1898625,3.90021914 44.7847979,3.44295302 43.9746564,3.44295302 C43.5465328,3.44295302 43.2056857,3.56196749 42.9521048,3.8 C42.6985239,4.03803251 42.5717354,4.34809652 42.5717354,4.73020134 L42.5717354,7.8590604 L41.7615979,7.8590604 Z" id="made-with" fill="#BDC3C7"></path>
                    <path d="M62.8116261,5.08376963 L62.8116261,6.80104712 C62.8116261,7.12914649 62.9402972,7.41535654 63.1976434,7.65968586 C63.4549895,7.90401518 63.7750177,8.02617801 64.1577376,8.02617801 C64.6790285,8.02617801 65.0749397,7.83769822 65.3454831,7.46073298 C65.6160265,7.08376775 65.7512962,6.55323204 65.7512962,5.86910995 C65.7512962,5.18498785 65.6160265,4.65445215 65.3454831,4.27748691 C65.0749397,3.90052168 64.6790285,3.71204188 64.1577376,3.71204188 C63.7486232,3.71204188 63.4219965,3.85340173 63.1778476,4.13612565 C62.9336987,4.41884958 62.8116261,4.73472775 62.8116261,5.08376963 Z M62,8.64397906 L62,1 L62.8116261,1 L62.8116261,3.62827225 L62.8314218,3.62827225 C63.2009445,3.16753696 63.6859357,2.93717277 64.2864101,2.93717277 C64.946272,2.93717277 65.4906499,3.20593099 65.9195601,3.7434555 C66.3484703,4.28098 66.5629222,4.9895244 66.5629222,5.86910995 C66.5629222,6.76265717 66.3567185,7.47469194 65.9443048,8.0052356 C65.5318911,8.53577927 64.9792651,8.80104712 64.2864101,8.80104712 C63.9366832,8.80104712 63.6282024,8.72949461 63.3609584,8.58638743 C63.0937143,8.44328026 62.8908098,8.28446859 62.7522388,8.10994764 L62.732443,8.10994764 L62.732443,8.64397906 L62,8.64397906 Z M68.1762765,11 L69.2254517,8.05759162 L67.2557738,3.09424084 L68.1069914,3.09424084 L69.5916732,6.92670157 L69.611469,6.92670157 L70.9476826,3.09424084 L71.7791045,3.09424084 L68.958209,11 L68.1762765,11 Z" id="by-the-folks-at" fill="#BDC3C7"></path>
                </g>
            </g>
        </g>
    </g>
</svg>